<?xml version="1.0" encoding="iso-8859-1"?>
<!-- Generator: Adobe Illustrator 19.0.0, SVG Export Plug-In . SVG Version: 6.00 Build 0)  -->
<svg version="1.1" id="Layer_1" xmlns="http://www.w3.org/2000/svg" xmlns:xlink="http://www.w3.org/1999/xlink" x="0px" y="0px"
	 viewBox="0 0 502 502" style="enable-background:new 0 0 502 502;" xml:space="preserve">
<g>
	<path style="fill:#4EC9DC;" d="M419.079,182.068v-56.83H197.328c-13.949,0-25.258-11.308-25.258-25.258
		s-11.308-25.258-25.258-25.258H10v352.555l72.921-245.21h336.158V182.068z"/>
	<polygon style="fill:#D1DCEB;" points="82.921,182.068 10,427.277 419.079,427.277 492,182.068 	"/>
	<g>
		<path d="M419.079,437.277c4.425,0,8.324-2.908,9.585-7.149l72.921-245.209c0.9-3.026,0.318-6.299-1.569-8.83
			s-4.858-4.021-8.016-4.021h-62.921v-46.83c0-5.523-4.478-10-10-10H197.328c-8.413,0-15.258-6.844-15.258-15.257
			c0-19.441-15.816-35.258-35.257-35.258H10c-5.523,0-10,4.477-10,10v352.555c0,4.966,3.645,9.181,8.56,9.896L419.079,437.277z
			 M20,84.723h126.812c8.413,0,15.257,6.845,15.257,15.258c0,19.441,15.816,35.257,35.258,35.257h211.751v36.83H82.921
			c-4.425,0-8.324,2.908-9.585,7.149L20,358.569V84.723z M478.594,192.068L411.62,417.277H23.407L90.38,192.068H478.594z"/>
		<path d="M290.991,211.006H113.135c-5.523,0-10,4.477-10,10s4.477,10,10,10h177.856c5.522,0,10-4.477,10-10
			S296.514,211.006,290.991,211.006z"/>
		<path d="M362.555,211.006h-23.153c-5.522,0-10,4.477-10,10s4.478,10,10,10h23.153c5.522,0,10-4.477,10-10
			S368.077,211.006,362.555,211.006z"/>
	</g>
</g>
<g>
</g>
<g>
</g>
<g>
</g>
<g>
</g>
<g>
</g>
<g>
</g>
<g>
</g>
<g>
</g>
<g>
</g>
<g>
</g>
<g>
</g>
<g>
</g>
<g>
</g>
<g>
</g>
<g>
</g>
</svg>
